<?xml version="1.0" encoding="utf-8"?>
<!-- Generator: Adobe Illustrator 27.2.0, SVG Export Plug-In . SVG Version: 6.00 Build 0)  -->
<svg version="1.1" id="Livello_1" xmlns="http://www.w3.org/2000/svg" xmlns:xlink="http://www.w3.org/1999/xlink" x="0px" y="0px"
	 viewBox="0 0 497 457.4" style="enable-background:new 0 0 497 457.4;" xml:space="preserve">
<style type="text/css">
	.Arco_x0020_verde{fill:url(#SVGID_1_);stroke:#FFFFFF;stroke-width:0.25;stroke-miterlimit:1;}
	.st0{fill:#FFFFFF;}
</style>
<linearGradient id="SVGID_1_" gradientUnits="userSpaceOnUse" x1="-229.2675" y1="656.7778" x2="-228.5604" y2="656.0707">
	<stop  offset="0" style="stop-color:#1EAB4B"/>
	<stop  offset="0.9831" style="stop-color:#19361A"/>
</linearGradient>
<path class="st0" d="M77.1,136.3c0.3-0.1,0.6-0.2,1-0.3l118-118c0.4-0.4,0.9-0.5,1.2-0.5c0.3,0,0.8,0.1,1.2,0.5l87.7,87.7
	c6.8-1.3,13.5-2.8,20.2-4.6L211,5.6C207.3,2,202.5,0,197.4,0c-5.1,0-10,2-13.6,5.6L33.4,156C47,147.6,61.7,141.1,77.1,136.3z"/>
<path class="st0" d="M432.4,16.3c-1-0.6-1.1,29.9-29.6,69.9c-14.4,19.5-37.7,39.2-67.3,52.4c-29.5,13.4-64.1,20.8-99.5,24.4
	c-70.9,6.7-132.8,2.4-175.1,13.5c-42.9,9.7-61,35.7-61,35c0.2,0.1,2.4-6.8,10.1-17.6c7.7-10.6,22.5-24.6,44.5-34.8
	c44.1-21.6,110.2-26.5,177.6-33c33.8-3.5,65.2-8.1,91.9-16.7C351,101,373,88.1,389.1,73.7C421.2,44.2,431.8,15.5,432.4,16.3z"/>
<path class="st0" d="M446.9,75c-1-0.6-1.1,29.9-29.6,69.9c-14.4,19.5-37.7,39.2-67.3,52.4c-29.5,13.4-64.1,20.8-99.5,24.4
	c-70.9,6.7-132.8,2.4-175.1,13.5c-42.9,9.7-61,35.7-61,35c0.2,0.1,2.4-6.8,10.1-17.6c7.7-10.6,22.5-24.6,44.5-34.8
	c44.1-21.6,110.2-26.5,177.6-33c33.8-3.5,65.2-8.1,91.9-16.7c26.8-8.4,48.8-21.3,64.9-35.7C435.6,102.9,446.2,74.2,446.9,75z"/>
<path class="st0" d="M497,126.2c-1-0.6-1.1,29.9-29.6,69.9c-14.4,19.5-37.7,39.2-67.3,52.4c-29.5,13.5-64.1,20.8-99.5,24.4
	c-70.9,6.7-132.8,2.4-175.1,13.5c-42.9,9.7-61,35.7-61,35c0.2,0.1,2.4-6.8,10.1-17.6c7.7-10.6,22.5-24.6,44.5-34.8
	c44.1-21.6,110.2-26.5,177.6-33c33.8-3.5,65.2-8.1,91.9-16.7c26.8-8.4,48.8-21.3,64.9-35.7C485.7,154.1,496.3,125.4,497,126.2z"/>
<path class="st0" d="M362.6,275.5l-164,164c-0.4,0.4-0.9,0.5-1.2,0.5c-0.3,0-0.8-0.1-1.2-0.5L80.5,323.8c-0.8,0.8-1.6,1.5-2.4,2.3
	c-1,1.1-2,2.1-2.9,3.2c-0.4,0.5-0.8,1-1.3,1.4c0,0,0-0.1,0-0.1c-1.6,1.6-3.5,2.9-6,3.6c-0.5,0.1-1,0.3-1.5,0.3l117.3,117.3
	c3.6,3.6,8.5,5.6,13.6,5.6c5.1,0,10-2,13.6-5.6L399.7,263C387.7,268.1,375.3,272.2,362.6,275.5z"/>
</svg>
